HIERARCHY
ROOT Hips
{
 OFFSET 0.000000 0.000000 0.000000
 CHANNELS 6 Xposition Yposition Zposition Yrotation Xrotation Zrotation
 JOINT Chest
 {
  OFFSET 0.000000 9.929072 0.003365
  CHANNELS 3 Yrotation Xrotation Zrotation
  JOINT Chest2
  {
   OFFSET 0.000000 10.971018 -0.006113
   CHANNELS 3 Yrotation Xrotation Zrotation
   JOINT Chest3
   {
    OFFSET 0.000000 9.912974 0.000000
    CHANNELS 3 Yrotation Xrotation Zrotation
    JOINT Chest4
    {
     OFFSET 0.000000 9.912974 0.000000
     CHANNELS 3 Yrotation Xrotation Zrotation
     JOINT Neck
     {
      OFFSET 0.000000 13.927846 0.000000
      CHANNELS 3 Yrotation Xrotation Zrotation
      JOINT Head
      {
       OFFSET 0.000000 9.224641 -0.014537
       CHANNELS 3 Yrotation Xrotation Zrotation
       End Site
       {
        OFFSET 0.000000 17.699375 -0.007593
       }
      }
     }
     JOINT RightCollar
     {
      OFFSET -2.989629 7.767491 0.000000
      CHANNELS 3 Yrotation Xrotation Zrotation
      JOINT RightShoulder
      {
       OFFSET -13.837047 0.000000 0.000000
       CHANNELS 3 Yrotation Xrotation Zrotation
       JOINT RightElbow
       {
        OFFSET 0.000000 -29.499480 0.000000
        CHANNELS 3 Yrotation Xrotation Zrotation
        JOINT RightWrist
        {
         OFFSET 0.000000 -24.159672 0.001937
         CHANNELS 3 Yrotation Xrotation Zrotation
         End Site
         {
          OFFSET 0.000000 -18.064068 0.000000
         }
        }
       }
      }
     }
     JOINT LeftCollar
     {
      OFFSET 2.989629 7.767491 0.000000
      CHANNELS 3 Yrotation Xrotation Zrotation
      JOINT LeftShoulder
      {
       OFFSET 13.837047 0.000000 0.000000
       CHANNELS 3 Yrotation Xrotation Zrotation
       JOINT LeftElbow
       {
        OFFSET 0.000000 -29.499480 0.000000
        CHANNELS 3 Yrotation Xrotation Zrotation
        JOINT LeftWrist
        {
         OFFSET 0.000000 -24.159672 0.001937
         CHANNELS 3 Yrotation Xrotation Zrotation
         End Site
         {
          OFFSET 0.000000 -18.064068 0.000000
         }
        }
       }
      }
     }
    }
   }
  }
 }
 JOINT RightHip
 {
  OFFSET -8.036712 -0.016490 -0.001683
  CHANNELS 3 Yrotation Xrotation Zrotation
  JOINT RightKnee
  {
   OFFSET 0.000000 -42.121952 0.001592
   CHANNELS 3 Yrotation Xrotation Zrotation
   JOINT RightAnkle
   {
    OFFSET 0.000000 -39.436059 -0.045183
    CHANNELS 3 Yrotation Xrotation Zrotation
    JOINT RightToe
    {
     OFFSET 0.000000 -5.848915 14.759459
     CHANNELS 3 Yrotation Xrotation Zrotation
     End Site
     {
      OFFSET 0.000000 -1.542647 7.054364
     }
    }
   }
  }
 }
 JOINT LeftHip
 {
  OFFSET 8.036712 -0.016490 -0.001683
  CHANNELS 3 Yrotation Xrotation Zrotation
  JOINT LeftKnee
  {
   OFFSET 0.000000 -42.121952 0.001592
   CHANNELS 3 Yrotation Xrotation Zrotation
   JOINT LeftAnkle
   {
    OFFSET 0.000000 -39.436059 -0.045183
    CHANNELS 3 Yrotation Xrotation Zrotation
    JOINT LeftToe
    {
     OFFSET 0.000000 -5.848915 14.759459
     CHANNELS 3 Yrotation Xrotation Zrotation
     End Site
     {
      OFFSET 0.000000 -1.542647 7.054364
     }
    }
   }
  }
 }
}
MOTION
Frames: 14
Frame Time: 0.008333
-73.383736 88.577173 79.128099 64.600123 -5.759285 0.144751 3.355476 5.959476 1.407048 1.486006 2.660238 0.552336 1.486006 2.660238 0.552336 1.111900 1.996537 0.407708 -0.556268 14.283185 -2.366957 -0.122704 -9.642800 -4.237519 3.296975 3.366094 13.547615 -6.616621 -19.232413 -8.509440 20.690731 4.716898 -7.332095 25.906111 -7.571460 -21.197918 5.896597 2.631593 -8.592898 -6.840525 -10.028055 4.836203 -12.071857 -11.440078 -1.090775 -34.236418 -1.446308 13.374950 4.504065 9.329538 0.889150 -1.772808 3.125035 -0.613191 0.079448 -6.530125 -0.781659 -0.004733 0.043879 0.032575 9.388355 9.227452 -1.965319 0.123593 1.959699 -1.550425 1.954233 -5.535926 4.070140 0.000974 -0.109697 -0.141576
-73.371420 88.575530 79.110384 64.592817 -5.786232 0.135935 3.360286 5.989731 1.406951 1.488551 2.674079 0.551647 1.488551 2.674079 0.551647 1.113796 2.006918 0.407145 -0.554191 14.244285 -2.352500 -0.123239 -9.715269 -4.211919 3.299784 3.361294 13.550054 -6.582903 -19.221563 -8.517852 20.578209 4.700448 -7.324968 25.968357 -7.568777 -21.180478 5.890000 2.631483 -8.596686 -6.855714 -10.036432 4.870198 -12.034291 -11.485657 -1.138967 -34.297496 -1.435359 13.390043 4.514511 9.305952 0.885523 -1.761043 3.234231 -0.612827 0.068457 -6.580899 -0.778107 -0.003422 0.042911 0.034155 9.358017 9.223205 -1.984485 0.101870 2.021748 -1.538692 1.991513 -5.554692 4.120381 -0.000585 -0.116141 -0.142239
-73.360166 88.574796 79.092007 64.585756 -5.813141 0.126047 3.363378 6.019625 1.406930 1.489819 2.688164 0.552960 1.489819 2.688164 0.552960 1.114726 2.017487 0.408090 -0.551578 14.204542 -2.337726 -0.122879 -9.789293 -4.185942 3.310574 3.357486 13.546897 -6.557699 -19.219571 -8.531304 20.467442 4.687338 -7.310891 26.034531 -7.559452 -21.160941 5.889992 2.627565 -8.599179 -6.880277 -10.042525 4.913133 -11.926635 -11.584672 -1.237800 -34.412600 -1.347747 13.390435 4.517581 9.283340 0.886768 -1.761216 3.338542 -0.623666 0.074175 -6.628427 -0.769727 -0.002285 0.041761 0.035971 9.315527 9.221238 -2.004290 0.092368 2.074479 -1.526541 2.032909 -5.572120 4.168873 -0.002257 -0.116802 -0.142270
-73.346930 88.573012 79.070229 64.578175 -5.836988 0.123274 3.365867 6.050502 1.402767 1.491199 2.701630 0.552272 1.491199 2.701630 0.552272 1.115750 2.027586 0.407534 -0.549244 14.168196 -2.324643 -0.122498 -9.856980 -4.162962 3.322075 3.350211 13.545897 -6.532200 -19.207813 -8.550808 20.345489 4.668304 -7.299631 26.098922 -7.555473 -21.126518 5.886491 2.627811 -8.602299 -6.899658 -10.053080 4.951094 -11.859935 -11.613440 -1.300975 -34.485557 -1.323260 13.403620 4.515912 9.262846 0.877248 -1.753912 3.436043 -0.633235 0.072247 -6.678150 -0.760394 -0.001634 0.044671 0.038554 9.269252 9.214663 -2.029460 0.083952 2.134665 -1.519143 2.078765 -5.595601 4.220996 -0.005456 -0.115946 -0.144285
-73.332539 88.571984 79.047482 64.570908 -5.863886 0.117550 3.364932 6.080716 1.403093 1.490492 2.715204 0.553970 1.490492 2.715204 0.553970 1.115198 2.037770 0.408777 -0.544943 14.133340 -2.316339 -0.116598 -9.921739 -4.149719 3.337090 3.353480 13.538111 -6.501860 -19.203428 -8.563718 20.221361 4.651524 -7.291571 26.163656 -7.543039 -21.095614 5.887680 2.634019 -8.612735 -6.917776 -10.066671 4.990936 -11.738119 -11.695176 -1.400624 -34.590447 -1.225805 13.402051 4.513738 9.244337 0.868396 -1.745801 3.536019 -0.639587 0.071539 -6.728145 -0.752604 -0.000424 0.045556 0.041181 9.221878 9.208225 -2.048841 0.081438 2.201825 -1.517233 2.117578 -5.624473 4.274979 -0.008341 -0.113773 -0.145187
-73.318146 88.571162 79.022846 64.574552 -5.888397 0.107662 3.360167 6.111809 1.403871 1.488368 2.729128 0.556007 1.488368 2.729128 0.556007 1.113582 2.048216 0.410278 -0.542359 14.097916 -2.307466 -0.114140 -9.987616 -4.134740 3.354003 3.357573 13.535223 -6.477853 -19.209804 -8.583729 20.097477 4.635852 -7.281890 26.224583 -7.523197 -21.058026 5.885698 2.639708 -8.619353 -6.918104 -10.088218 5.020753 -11.666096 -11.700963 -1.454742 -34.633372 -1.204676 13.412958 4.509950 9.227747 0.867514 -1.722841 3.627211 -0.655028 0.053047 -6.772232 -0.739769 0.000444 0.044867 0.044370 9.154679 9.202762 -2.068991 0.089857 2.257381 -1.514294 2.154140 -5.647496 4.333417 -0.010881 -0.109691 -0.148711
-73.302633 88.570476 78.998835 64.572092 -5.913815 0.100225 3.362452 6.144758 1.403030 1.489239 2.743517 0.556699 1.489239 2.743517 0.556699 1.114216 2.059010 0.410757 -0.543453 14.063806 -2.295259 -0.119972 -10.051236 -4.112000 3.355668 3.363519 13.535443 -6.451818 -19.218667 -8.601963 19.970171 4.617880 -7.273200 26.281447 -7.516302 -21.024375 5.874211 2.644622 -8.620690 -6.923726 -10.114220 5.049793 -11.520879 -11.771322 -1.555996 -34.718769 -1.097466 13.421995 4.509869 9.209454 0.860409 -1.712515 3.724694 -0.662614 0.047879 -6.820712 -0.730304 0.002562 0.044370 0.046177 9.101638 9.202631 -2.089756 0.099831 2.308003 -1.510726 2.179410 -5.668001 4.390156 -0.011017 -0.106297 -0.150065
-73.286021 88.570027 78.974230 64.576151 -5.937714 0.090035 3.357620 6.179940 1.402133 1.487490 2.759022 0.557453 1.487490 2.759022 0.557453 1.112885 2.070639 0.411292 -0.542924 14.028938 -2.284329 -0.122232 -10.116187 -4.092312 3.360047 3.364958 13.536036 -6.423333 -19.226796 -8.618690 19.830898 4.594999 -7.264343 26.337314 -7.504093 -20.993220 5.875350 2.645112 -8.622566 -6.926283 -10.146379 5.076818 -11.416794 -11.756064 -1.615085 -34.743245 -1.073044 13.450984 4.497290 9.196268 0.856042 -1.696777 3.811181 -0.674435 0.040057 -6.863866 -0.716573 0.003957 0.042886 0.046753 9.042814 9.201990 -2.110141 0.109736 2.356184 -1.507354 2.212489 -5.687602 4.448138 -0.012777 -0.103266 -0.151579
-73.268124 88.569370 78.948433 64.577219 -5.958812 0.083892 3.353525 6.211627 1.405205 1.485659 2.772957 0.559664 1.485659 2.772957 0.559664 1.111487 2.081094 0.412923 -0.544746 13.995150 -2.276679 -0.127675 -10.179131 -4.077849 3.364976 3.373685 13.529822 -6.400012 -19.245224 -8.631739 19.690261 4.585390 -7.262954 26.399245 -7.492109 -20.977029 5.879034 2.655526 -8.629286 -6.932384 -10.180026 5.101005 -11.268712 -11.793181 -1.714164 -34.777280 -0.982788 13.492179 4.489609 9.176928 0.847720 -1.689632 3.905411 -0.688044 0.038354 -6.912309 -0.703830 0.005942 0.042249 0.049462 8.983862 9.197787 -2.138157 0.117948 2.408963 -1.499249 2.248683 -5.709751 4.502760 -0.014284 -0.100806 -0.151765
-73.249200 88.568905 78.923018 64.581594 -5.978702 0.075065 3.346916 6.244606 1.404865 1.483107 2.787698 0.561376 1.483107 2.787698 0.561376 1.109550 2.092152 0.414182 -0.547377 13.959418 -2.268574 -0.134772 -10.245718 -4.062243 3.368116 3.380883 13.520228 -6.385571 -19.262525 -8.637318 19.563678 4.569135 -7.270636 26.436517 -7.491022 -20.954287 5.872617 2.664812 -8.634997 -6.908793 -10.221348 5.115140 -11.181672 -11.774798 -1.753632 -34.740920 -0.955281 13.533555 4.481062 9.157325 0.835970 -1.675944 4.000151 -0.689840 0.034443 -6.963169 -0.693852 0.007420 0.041428 0.049264 8.927077 9.196763 -2.163454 0.119661 2.452858 -1.491166 2.288240 -5.727193 4.556727 -0.015174 -0.098780 -0.151381
-73.226717 88.568984 78.897557 64.591698 -6.005524 0.063295 3.336712 6.278078 1.405561 1.478685 2.802360 0.563381 1.478685 2.802360 0.563381 1.106209 2.103150 0.415669 -0.548183 13.924949 -2.258598 -0.139217 -10.309944 -4.043794 3.371585 3.394927 13.515458 -6.370227 -19.285323 -8.642863 19.456247 4.562536 -7.276889 26.448748 -7.487425 -20.947559 5.876042 2.688479 -8.633692 -6.905302 -10.271556 5.127354 -11.036094 -11.802854 -1.826369 -34.734195 -0.870939 13.580055 4.470778 9.147921 0.831009 -1.673665 4.093919 -0.700207 0.035342 -7.017057 -0.679408 0.009376 0.039784 0.049793 8.857650 9.197778 -2.184247 0.124087 2.509014 -1.490179 2.336036 -5.751674 4.612411 -0.016646 -0.098164 -0.149517
-73.202606 88.568503 78.869606 64.606994 -6.026184 0.053470 3.320560 6.312883 1.409621 1.471633 2.817849 0.566936 1.471633 2.817849 0.566936 1.100887 2.114768 0.418329 -0.548658 13.889322 -2.253517 -0.141074 -10.376206 -4.034730 3.383943 3.403969 13.498377 -6.368230 -19.312170 -8.651945 19.375942 4.552382 -7.279410 26.414770 -7.485046 -20.944690 5.888466 2.709341 -8.644867 -6.897728 -10.318412 5.137454 -10.973176 -11.783928 -1.847631 -34.642757 -0.853799 13.631063 4.448972 9.135504 0.817018 -1.682447 4.184186 -0.703403 0.043585 -7.071197 -0.664906 0.011406 0.038195 0.048737 8.777064 9.197745 -2.213903 0.127709 2.554708 -1.484322 2.388808 -5.770098 4.666564 -0.019098 -0.097699 -0.147276
-73.178770 88.568057 78.840859 64.622465 -6.043746 0.046700 3.301173 6.348583 1.413399 1.462859 2.834229 0.569238 1.462859 2.834229 0.569238 1.094280 2.127050 0.420055 -0.546825 13.849345 -2.247532 -0.138812 -10.450498 -4.024960 3.400780 3.395945 13.481796 -6.375486 -19.328930 -8.655468 19.326330 4.545880 -7.296878 26.375413 -7.495695 -20.938998 5.908314 2.720624 -8.655937 -6.890349 -10.361314 5.137983 -10.839926 -11.814788 -1.893619 -34.594734 -0.778075 13.681054 4.431857 9.122383 0.797976 -1.668923 4.269369 -0.700335 0.027165 -7.122811 -0.652595 0.013821 0.036827 0.048275 8.707856 9.195114 -2.245763 0.117196 2.600240 -1.479376 2.443946 -5.787011 4.722300 -0.020216 -0.097971 -0.145802
-73.154242 88.567797 78.812894 64.639138 -6.058098 0.038320 3.280782 6.384976 1.415788 1.453549 2.850427 0.571388 1.453549 2.850427 0.571388 1.087271 2.139195 0.421671 -0.547395 13.804131 -2.241249 -0.141055 -10.534588 -4.013775 3.424543 3.384636 13.467287 -6.392177 -19.350706 -8.660945 19.277784 4.538811 -7.307442 26.339021 -7.508990 -20.943893 5.933398 2.733922 -8.669815 -6.861958 -10.407212 5.138464 -10.712860 -11.780867 -1.915113 -34.552548 -0.772551 13.758854 4.428913 9.107914 0.784205 -1.665952 4.351667 -0.698107 0.002784 -7.172017 -0.638328 0.016100 0.033571 0.046598 8.643219 9.190731 -2.276879 0.109885 2.644444 -1.471519 2.494012 -5.803027 4.774003 -0.021422 -0.098595 -0.142957
